<svg width="128" height="128" viewBox="0 0 128 128" fill="none" xmlns="http://www.w3.org/2000/svg">
  <!-- Background circle -->
  <circle cx="64" cy="64" r="60" fill="#4ade80" stroke="#22c55e" stroke-width="2"/>
  
  <!-- Leaf shape -->
  <path d="M64 20 C80 20, 100 40, 100 60 C100 80, 80 100, 64 100 C48 100, 28 80, 28 60 C28 40, 48 20, 64 20 Z" fill="#16a34a"/>
  
  <!-- Stem -->
  <line x1="64" y1="100" x2="64" y2="110" stroke="#16a34a" stroke-width="4" stroke-linecap="round"/>
  
  <!-- Leaf veins -->
  <path d="M64 30 Q75 45, 85 60 M64 30 Q70 50, 75 70 M64 30 Q55 45, 45 60 M64 30 Q58 50, 53 70" stroke="#22c55e" stroke-width="2" fill="none"/>
  
  <!-- CO2 text -->
  <text x="64" y="75" text-anchor="middle" font-family="Arial, sans-serif" font-size="12" font-weight="bold" fill="white">CO₂</text>
</svg>
